# xmcd
# 
# Track frame offsets:
#     150
#     15458
#     35299
#     51412
#     67920
#     85444
#     98582
#     112063
#     124711
#     143746
#     159077
# 
# Disc length: 2369
# 
# Revision: 5
# Processed by: cddbd v1.5.2PL0 Copyright (c) Steve Scherf et al.
# Submitted via: fre:ac v1.0.31
# 
DISCID=85093f0b
DTITLE=Jewel - Sweet and Wild
DYEAR=2010
DGENRE=Folk/Country
TTITLE0=No Good in Goodbye
TTITLE1=I Love You Forever
TTITLE2=Fading
TTITLE3=What You Are
TTITLE4=Bad As It Gets
TTITLE5=Summer Home In Your Arms
TTITLE6=Stay Here Forever
TTITLE7=No More Heartaches
TTITLE8=One True Thing
TTITLE9=Ten
TTITLE10=Satisfied
EXTD=
EXTT0=
EXTT1=
EXTT2=
EXTT3=
EXTT4=
EXTT5=
EXTT6=
EXTT7=
EXTT8=
EXTT9=
EXTT10=
PLAYORDER=
